<?xml version="1.0" encoding="UTF-8" standalone="no"?>
<!DOCTYPE svg PUBLIC "-//W3C//DTD SVG 1.1//EN"
 "http://www.w3.org/Graphics/SVG/1.1/DTD/svg11.dtd">
<!-- Generated by graphviz version 13.0.1 (0)
 -->
<!-- Pages: 1 -->
<svg width="1217pt" height="188pt"
 viewBox="0.00 0.00 1217.00 188.00" xmlns="http://www.w3.org/2000/svg" xmlns:xlink="http://www.w3.org/1999/xlink">
<g id="graph0" class="graph" transform="scale(1 1) rotate(0) translate(4 184)">
<polygon fill="white" stroke="none" points="-4,4 -4,-184 1213.25,-184 1213.25,4 -4,4"/>
<!-- 0 -->
<g id="node1" class="node">
<title>0</title>
<ellipse fill="none" stroke="black" cx="481.63" cy="-162" rx="236.63" ry="18"/>
<text xml:space="preserve" text-anchor="middle" x="481.63" y="-156.95" font-family="Times,serif" font-size="14.00">AnalysisStmtHandle { scope: CodeScopeHandle(2), idx: 0 }</text>
</g>
<!-- 1 -->
<g id="node2" class="node">
<title>1</title>
<ellipse fill="none" stroke="black" cx="236.63" cy="-90" rx="236.63" ry="18"/>
<text xml:space="preserve" text-anchor="middle" x="236.63" y="-84.95" font-family="Times,serif" font-size="14.00">AnalysisStmtHandle { scope: CodeScopeHandle(3), idx: 0 }</text>
</g>
<!-- 0&#45;&gt;1 -->
<g id="edge1" class="edge">
<title>0&#45;&gt;1</title>
<path fill="none" stroke="black" d="M422.63,-144.14C387.58,-134.13 342.94,-121.37 306.17,-110.87"/>
<polygon fill="black" stroke="black" points="307.57,-107.63 296.99,-108.25 305.64,-114.36 307.57,-107.63"/>
</g>
<!-- 3 -->
<g id="node4" class="node">
<title>3</title>
<ellipse fill="none" stroke="black" cx="727.63" cy="-90" rx="236.63" ry="18"/>
<text xml:space="preserve" text-anchor="middle" x="727.63" y="-84.95" font-family="Times,serif" font-size="14.00">AnalysisStmtHandle { scope: CodeScopeHandle(2), idx: 1 }</text>
</g>
<!-- 0&#45;&gt;3 -->
<g id="edge3" class="edge">
<title>0&#45;&gt;3</title>
<path fill="none" stroke="black" d="M540.86,-144.14C576.06,-134.13 620.88,-121.37 657.79,-110.87"/>
<polygon fill="black" stroke="black" points="658.36,-114.35 667.02,-108.25 656.45,-107.62 658.36,-114.35"/>
</g>
<!-- 2 -->
<g id="node3" class="node">
<title>2</title>
<ellipse fill="none" stroke="black" cx="236.63" cy="-18" rx="236.63" ry="18"/>
<text xml:space="preserve" text-anchor="middle" x="236.63" y="-12.95" font-family="Times,serif" font-size="14.00">AnalysisStmtHandle { scope: CodeScopeHandle(3), idx: 1 }</text>
</g>
<!-- 1&#45;&gt;2 -->
<g id="edge2" class="edge">
<title>1&#45;&gt;2</title>
<path fill="none" stroke="black" d="M236.63,-71.7C236.63,-64.41 236.63,-55.73 236.63,-47.54"/>
<polygon fill="black" stroke="black" points="240.13,-47.62 236.63,-37.62 233.13,-47.62 240.13,-47.62"/>
</g>
<!-- 4 -->
<g id="node5" class="node">
<title>4</title>
<ellipse fill="none" stroke="black" cx="972.63" cy="-162" rx="236.63" ry="18"/>
<text xml:space="preserve" text-anchor="middle" x="972.63" y="-156.95" font-family="Times,serif" font-size="14.00">AnalysisStmtHandle { scope: CodeScopeHandle(0), idx: 0 }</text>
</g>
</g>
</svg>
